<svg xmlns="http://www.w3.org/2000/svg" xmlns:xlink="http://www.w3.org/1999/xlink" width="500" zoomAndPan="magnify" viewBox="0 0 375 374.999991" height="500" preserveAspectRatio="xMidYMid meet" version="1.0"><defs><g/><clipPath id="6f6c938a2d"><path d="M 130.109375 68 L 211 68 L 211 264.167969 L 130.109375 264.167969 Z M 130.109375 68 " clip-rule="nonzero"/></clipPath></defs><g clip-path="url(#6f6c938a2d)"><path fill="#000000" d="M 179.882812 107.949219 C 180.347656 108.734375 180.785156 109.636719 181.5 110.207031 C 186.878906 114.496094 193.183594 117.484375 199.925781 116.820312 C 200.65625 116.75 204 116.796875 202.402344 118.175781 C 199.683594 120.511719 199.996094 120.429688 199.023438 120.855469 C 195.503906 122.402344 188.167969 124.496094 186.105469 124.597656 C 184.957031 124.65625 183.972656 125.210938 182.636719 125.371094 C 182.242188 125.417969 182.152344 125.636719 182.070312 125.773438 C 181.132812 127.300781 181.640625 126.535156 181.628906 131.824219 C 181.628906 131.949219 182.003906 139.820312 182.722656 143.449219 C 183.121094 145.457031 182.265625 150.453125 182.757812 150.914062 C 183.347656 151.464844 183.46875 151.863281 184.445312 152.1875 C 190.734375 154.277344 208.875 165.046875 210.691406 167.046875 C 211.109375 167.507812 211.078125 168.203125 210.730469 168.726562 C 207.546875 173.5625 205.480469 172.710938 201.734375 179.695312 C 199.265625 184.304688 196.648438 184.519531 196.65625 187.433594 C 196.660156 189.578125 196.449219 189.089844 196.09375 190.058594 C 195.652344 191.265625 195.058594 192.410156 194.667969 193.640625 C 194.222656 195.035156 192.183594 195.511719 190.742188 195.328125 C 185.144531 194.617188 186.183594 195.671875 184.628906 197.773438 C 182.347656 200.847656 179.222656 204.316406 175.949219 206.300781 C 171.917969 208.738281 170.425781 207.191406 169.441406 206.359375 C 169.21875 206.171875 169.0625 206.238281 168.757812 206.359375 C 167.78125 206.742188 167.90625 206.449219 168.003906 207.539062 C 168.71875 215.257812 168.734375 209.03125 168.570312 217.953125 C 168.570312 233.980469 163.957031 248.441406 167.75 258.355469 C 168.03125 259.089844 168.324219 260.019531 168.851562 260.609375 C 169.398438 261.214844 169.699219 261.222656 169.742188 262.140625 C 169.4375 262.574219 169.238281 263.109375 168.832031 263.445312 C 168.257812 263.925781 166.605469 263.179688 166.144531 262.832031 C 165.304688 262.195312 164.601562 262.378906 163.96875 262.015625 C 161.027344 260.332031 158.976562 262.589844 158.433594 262.828125 C 158.199219 262.929688 157.488281 263.339844 157.488281 263.339844 C 156.902344 263.488281 156.332031 263.679688 155.824219 264.019531 C 155.617188 264.160156 153.789062 263.589844 153.699219 263.328125 C 153.457031 262.640625 152.589844 261.699219 153.136719 261.109375 C 153.574219 260.636719 153.40625 260.558594 153.980469 260.179688 C 156.222656 258.707031 156.015625 255.996094 156.46875 253.625 C 156.910156 251.3125 157.667969 249.105469 157.875 246.734375 C 158.167969 243.324219 157.082031 233.578125 155.21875 228.46875 C 154.214844 225.71875 155.003906 218.855469 155.378906 215.109375 C 157.078125 198.085938 156.050781 198.859375 153.785156 190.804688 C 144.699219 158.496094 145.042969 159.46875 152.320312 146.066406 C 152.957031 144.894531 154.503906 142.792969 154.664062 138.414062 C 154.738281 136.371094 154.5625 134.25 153.90625 132.335938 C 151.386719 125.019531 151.785156 125.320312 151.296875 125.160156 C 150.113281 124.769531 149.058594 124.101562 147.933594 123.585938 C 147.734375 123.492188 147.566406 123.238281 147.339844 123.320312 C 147.144531 123.390625 147.113281 123.664062 146.992188 123.835938 C 145.367188 126.160156 146.585938 123.871094 144.300781 128.796875 C 141.910156 133.960938 141.65625 134.386719 140.648438 134.785156 C 139.789062 135.121094 138.351562 136.265625 137.511719 135.414062 C 135.957031 133.835938 132.203125 117.082031 131.867188 114.847656 C 131.402344 111.777344 131.515625 110.351562 131.242188 108.328125 C 130.125 100.078125 132.488281 101.195312 132.773438 99.199219 C 132.851562 98.675781 132.78125 98.144531 132.761719 97.613281 C 132.109375 80.679688 177.671875 63.914062 185.023438 69.433594 C 187.320312 71.15625 190.808594 80.671875 173.195312 93.167969 C 170.953125 94.757812 166.089844 97.414062 165.96875 98.371094 C 165.808594 99.679688 165.621094 100.699219 166.695312 103.269531 C 167.277344 104.667969 167.328125 106.183594 169.976562 106.425781 C 176.714844 107.042969 178.347656 105.328125 179.882812 107.945312 Z M 159.839844 104.84375 C 159.816406 100.652344 158.046875 101.550781 156.742188 101.535156 C 156.417969 101.53125 144.027344 104.625 141.121094 104.175781 C 136.925781 103.523438 137.429688 103.175781 137.667969 102.824219 C 138.160156 102.109375 138.152344 102.074219 137.53125 101.878906 C 137.394531 101.835938 137.300781 101.867188 137.257812 101.996094 C 137.113281 102.410156 136.84375 102.773438 136.742188 103.207031 C 136.25 105.355469 134.878906 106.261719 134.398438 107.613281 C 134.207031 108.15625 134.027344 109.652344 134.144531 110.121094 C 134.429688 111.242188 134.101562 111.425781 134.414062 112.1875 C 135.164062 114 135.457031 117.328125 136.738281 120.714844 C 137.148438 121.808594 139.832031 127.855469 141.34375 125.136719 C 141.488281 124.878906 141.601562 124.609375 141.707031 124.339844 C 142.429688 122.5 143.050781 122.757812 143.054688 121.476562 C 143.058594 120.582031 142.308594 120.785156 142.144531 120.066406 C 141.597656 117.679688 143.125 117.832031 144.484375 114.050781 C 145.078125 112.402344 145.421875 112.917969 145.984375 111.933594 C 147.328125 109.585938 148.136719 109.09375 148.925781 108.890625 C 155.121094 107.304688 160.070312 108.089844 159.839844 104.84375 Z M 176.253906 127.140625 C 176.035156 126.21875 174.820312 126.328125 174.554688 127.304688 C 174.179688 128.691406 171.742188 134.894531 171.621094 137.519531 C 171.359375 143.164062 174.292969 144.421875 174.578125 144.730469 C 174.875 145.050781 175.976562 146.058594 176.925781 146.453125 C 177.457031 146.675781 176.78125 145.863281 177.097656 141.136719 C 177.335938 137.515625 177.121094 130.828125 176.253906 127.140625 Z M 176.253906 127.140625 " fill-opacity="1" fill-rule="nonzero"/></g><g fill="#000000" fill-opacity="1"><g transform="translate(51.872071, 257.065082)"><g><path d="M 31.5 -11.25 C 31.5 -10.6875 31.425781 -9.664062 31.28125 -8.1875 C 31.144531 -6.71875 30.65625 -5.207031 29.8125 -3.65625 C 28.96875 -2.113281 27.628906 -0.742188 25.796875 0.453125 C 23.972656 1.648438 21.375 2.25 18 2.25 C 14.625 2.25 12.019531 1.648438 10.1875 0.453125 C 8.363281 -0.742188 7.03125 -2.113281 6.1875 -3.65625 C 5.34375 -5.207031 4.847656 -6.71875 4.703125 -8.1875 C 4.566406 -9.664062 4.5 -10.6875 4.5 -11.25 L 4.5 -110.28125 C 4.5 -110.65625 4.519531 -111.21875 4.5625 -111.96875 C 4.613281 -112.71875 4.753906 -113.546875 4.984375 -114.453125 C 5.222656 -115.367188 5.625 -116.304688 6.1875 -117.265625 C 6.75 -118.234375 7.519531 -119.113281 8.5 -119.90625 C 9.488281 -120.707031 10.753906 -121.351562 12.296875 -121.84375 C 13.847656 -122.332031 15.75 -122.578125 18 -122.578125 C 20.25 -122.578125 22.144531 -122.332031 23.6875 -121.84375 C 25.238281 -121.351562 26.503906 -120.707031 27.484375 -119.90625 C 28.472656 -119.113281 29.25 -118.234375 29.8125 -117.265625 C 30.375 -116.304688 30.769531 -115.367188 31 -114.453125 C 31.238281 -113.546875 31.378906 -112.71875 31.421875 -111.96875 C 31.472656 -111.21875 31.5 -110.65625 31.5 -110.28125 Z M 13.5 -11.25 C 13.5 -10.6875 13.519531 -10.019531 13.5625 -9.25 C 13.613281 -8.476562 13.78125 -7.738281 14.0625 -7.03125 C 14.34375 -6.332031 14.785156 -5.734375 15.390625 -5.234375 C 16.003906 -4.742188 16.875 -4.5 18 -4.5 C 19.125 -4.5 19.988281 -4.742188 20.59375 -5.234375 C 21.207031 -5.734375 21.65625 -6.332031 21.9375 -7.03125 C 22.21875 -7.738281 22.378906 -8.476562 22.421875 -9.25 C 22.472656 -10.019531 22.5 -10.6875 22.5 -11.25 L 22.5 -110.28125 C 22.5 -110.84375 22.472656 -111.453125 22.421875 -112.109375 C 22.378906 -112.765625 22.21875 -113.359375 21.9375 -113.890625 C 21.65625 -114.429688 21.207031 -114.890625 20.59375 -115.265625 C 19.988281 -115.640625 19.125 -115.828125 18 -115.828125 C 16.875 -115.828125 16.003906 -115.640625 15.390625 -115.265625 C 14.785156 -114.890625 14.34375 -114.429688 14.0625 -113.890625 C 13.78125 -113.359375 13.613281 -112.765625 13.5625 -112.109375 C 13.519531 -111.453125 13.5 -110.84375 13.5 -110.28125 Z M 13.5 -11.25 "/></g></g></g><g fill="#000000" fill-opacity="1"><g transform="translate(103.145505, 257.065082)"><g><path d="M 13.5 -121.53125 L 13.5 -6.75 L 22.5 -6.75 L 22.5 0 L 4.5 0 L 4.5 -121.53125 Z M 13.5 -121.53125 "/></g></g></g><g fill="#000000" fill-opacity="1"><g transform="translate(145.431635, 257.065082)"><g/></g></g><g fill="#000000" fill-opacity="1"><g transform="translate(177.365985, 257.065082)"><g/></g></g><g fill="#000000" fill-opacity="1"><g transform="translate(209.313467, 257.065082)"><g><path d="M 13.578125 -83.265625 L 15.75 -38.265625 L 17.9375 -83.265625 L 20.25 -121.53125 L 29.25 -121.53125 L 20.25 0 L 11.25 0 L 2.25 -121.53125 L 11.25 -121.53125 Z M 13.578125 -83.265625 "/></g></g></g><g fill="#000000" fill-opacity="1"><g transform="translate(256.086168, 257.065082)"><g><path d="M 14.625 -121.53125 L 14.625 0 L 5.625 0 L 5.625 -121.53125 Z M 14.625 -121.53125 "/></g></g></g><g fill="#000000" fill-opacity="1"><g transform="translate(291.607038, 257.065082)"><g><path d="M 29.25 0 L 20.25 0 L 19.125 -29.25 L 12.453125 -29.25 L 11.25 0 L 2.25 0 L 9 -121.53125 L 22.5 -121.53125 Z M 18 -63.015625 L 15.75 -117.03125 L 13.5 -63.015625 L 12.453125 -36.015625 L 19.125 -36.015625 Z M 18 -63.015625 "/></g></g></g><g fill="#000000" fill-opacity="1"><g transform="translate(54.514356, 300.56213)"><g><path d="M 13.421875 -20.625 L 13.421875 -16.5 L 6.203125 -16.5 L 6.203125 -12.40625 L 12.875 -12.40625 L 12.875 -8.28125 L 6.203125 -8.28125 L 6.203125 0 L 1.5 0 L 1.5 -20.625 Z M 13.421875 -20.625 "/></g></g></g><g fill="#000000" fill-opacity="1"><g transform="translate(71.833575, 300.56213)"><g><path d="M 11.96875 -20.625 L 20.296875 0 L 15.25 0 L 13.71875 -4.125 L 5.875 -4.125 L 4.34375 0 L -0.703125 0 L 7.625 -20.625 Z M 12.125 -8.25 L 9.828125 -14.25 L 9.78125 -14.25 L 7.46875 -8.25 Z M 12.125 -8.25 "/></g></g></g><g fill="#000000" fill-opacity="1"><g transform="translate(94.575648, 300.56213)"><g><path d="M 9.09375 -21 C 10.21875 -21 11.3125 -20.835938 12.375 -20.515625 C 13.4375 -20.191406 14.226562 -19.867188 14.75 -19.546875 L 15.5 -19.046875 L 13.59375 -15.296875 C 13.445312 -15.398438 13.238281 -15.53125 12.96875 -15.6875 C 12.707031 -15.84375 12.207031 -16.050781 11.46875 -16.3125 C 10.738281 -16.582031 10.054688 -16.71875 9.421875 -16.71875 C 8.640625 -16.71875 8.035156 -16.550781 7.609375 -16.21875 C 7.179688 -15.882812 6.96875 -15.4375 6.96875 -14.875 C 6.96875 -14.59375 7.066406 -14.328125 7.265625 -14.078125 C 7.472656 -13.835938 7.816406 -13.582031 8.296875 -13.3125 C 8.785156 -13.039062 9.210938 -12.820312 9.578125 -12.65625 C 9.941406 -12.488281 10.507812 -12.238281 11.28125 -11.90625 C 12.613281 -11.332031 13.75 -10.554688 14.6875 -9.578125 C 15.625 -8.609375 16.09375 -7.507812 16.09375 -6.28125 C 16.09375 -5.09375 15.878906 -4.054688 15.453125 -3.171875 C 15.035156 -2.285156 14.453125 -1.59375 13.703125 -1.09375 C 12.960938 -0.59375 12.144531 -0.222656 11.25 0.015625 C 10.351562 0.253906 9.378906 0.375 8.328125 0.375 C 7.421875 0.375 6.535156 0.28125 5.671875 0.09375 C 4.804688 -0.0820312 4.082031 -0.304688 3.5 -0.578125 C 2.914062 -0.859375 2.390625 -1.128906 1.921875 -1.390625 C 1.453125 -1.660156 1.113281 -1.890625 0.90625 -2.078125 L 0.578125 -2.34375 L 2.921875 -6.296875 C 3.117188 -6.128906 3.394531 -5.914062 3.75 -5.65625 C 4.101562 -5.40625 4.722656 -5.0625 5.609375 -4.625 C 6.503906 -4.1875 7.289062 -3.96875 7.96875 -3.96875 C 9.957031 -3.96875 10.953125 -4.644531 10.953125 -6 C 10.953125 -6.28125 10.878906 -6.539062 10.734375 -6.78125 C 10.597656 -7.03125 10.347656 -7.273438 9.984375 -7.515625 C 9.628906 -7.753906 9.3125 -7.941406 9.03125 -8.078125 C 8.757812 -8.222656 8.3125 -8.441406 7.6875 -8.734375 C 7.0625 -9.023438 6.597656 -9.25 6.296875 -9.40625 C 5.046875 -10.019531 4.078125 -10.785156 3.390625 -11.703125 C 2.710938 -12.628906 2.375 -13.628906 2.375 -14.703125 C 2.375 -16.546875 3.054688 -18.054688 4.421875 -19.234375 C 5.785156 -20.410156 7.34375 -21 9.09375 -21 Z M 9.09375 -21 "/></g></g></g><g fill="#000000" fill-opacity="1"><g transform="translate(114.518829, 300.56213)"><g><path d="M 6.203125 -8.28125 L 6.203125 0 L 1.5 0 L 1.5 -20.625 L 6.203125 -20.625 L 6.203125 -12.40625 L 12.84375 -12.40625 L 12.84375 -20.625 L 17.546875 -20.625 L 17.546875 0 L 12.84375 0 L 12.84375 -8.28125 Z M 6.203125 -8.28125 "/></g></g></g><g fill="#000000" fill-opacity="1"><g transform="translate(136.71111, 300.56213)"><g><path d="M 6.203125 -20.625 L 6.203125 0 L 1.5 0 L 1.5 -20.625 Z M 6.203125 -20.625 "/></g></g></g><g fill="#000000" fill-opacity="1"><g transform="translate(147.557877, 300.56213)"><g><path d="M 0.578125 -10.328125 C 0.578125 -13.304688 1.59375 -15.828125 3.625 -17.890625 C 5.65625 -19.960938 8.101562 -21 10.96875 -21 C 13.851562 -21 16.300781 -19.96875 18.3125 -17.90625 C 20.332031 -15.851562 21.34375 -13.328125 21.34375 -10.328125 C 21.34375 -7.304688 20.351562 -4.765625 18.375 -2.703125 C 16.394531 -0.648438 13.925781 0.375 10.96875 0.375 C 7.957031 0.375 5.472656 -0.644531 3.515625 -2.6875 C 1.554688 -4.726562 0.578125 -7.273438 0.578125 -10.328125 Z M 5.65625 -10.328125 C 5.65625 -9.242188 5.820312 -8.253906 6.15625 -7.359375 C 6.488281 -6.472656 7.070312 -5.71875 7.90625 -5.09375 C 8.738281 -4.476562 9.757812 -4.171875 10.96875 -4.171875 C 12.71875 -4.171875 14.039062 -4.769531 14.9375 -5.96875 C 15.832031 -7.175781 16.28125 -8.628906 16.28125 -10.328125 C 16.28125 -12.003906 15.820312 -13.445312 14.90625 -14.65625 C 14 -15.863281 12.6875 -16.46875 10.96875 -16.46875 C 9.269531 -16.46875 7.957031 -15.863281 7.03125 -14.65625 C 6.113281 -13.445312 5.65625 -12.003906 5.65625 -10.328125 Z M 5.65625 -10.328125 "/></g></g></g><g fill="#000000" fill-opacity="1"><g transform="translate(172.624027, 300.56213)"><g><path d="M 6.203125 -12.796875 L 6.203125 0 L 1.5 0 L 1.5 -20.625 L 6.203125 -20.625 L 14.40625 -7.828125 L 14.453125 -7.828125 L 14.453125 -20.625 L 19.15625 -20.625 L 19.15625 0 L 14.453125 0 L 6.25 -12.796875 Z M 6.203125 -12.796875 "/></g></g></g><g fill="#000000" fill-opacity="1"><g transform="translate(196.415677, 300.56213)"><g/></g></g><g fill="#000000" fill-opacity="1"><g transform="translate(206.387786, 300.56213)"><g><path d="M 9.09375 -21 C 10.21875 -21 11.3125 -20.835938 12.375 -20.515625 C 13.4375 -20.191406 14.226562 -19.867188 14.75 -19.546875 L 15.5 -19.046875 L 13.59375 -15.296875 C 13.445312 -15.398438 13.238281 -15.53125 12.96875 -15.6875 C 12.707031 -15.84375 12.207031 -16.050781 11.46875 -16.3125 C 10.738281 -16.582031 10.054688 -16.71875 9.421875 -16.71875 C 8.640625 -16.71875 8.035156 -16.550781 7.609375 -16.21875 C 7.179688 -15.882812 6.96875 -15.4375 6.96875 -14.875 C 6.96875 -14.59375 7.066406 -14.328125 7.265625 -14.078125 C 7.472656 -13.835938 7.816406 -13.582031 8.296875 -13.3125 C 8.785156 -13.039062 9.210938 -12.820312 9.578125 -12.65625 C 9.941406 -12.488281 10.507812 -12.238281 11.28125 -11.90625 C 12.613281 -11.332031 13.75 -10.554688 14.6875 -9.578125 C 15.625 -8.609375 16.09375 -7.507812 16.09375 -6.28125 C 16.09375 -5.09375 15.878906 -4.054688 15.453125 -3.171875 C 15.035156 -2.285156 14.453125 -1.59375 13.703125 -1.09375 C 12.960938 -0.59375 12.144531 -0.222656 11.25 0.015625 C 10.351562 0.253906 9.378906 0.375 8.328125 0.375 C 7.421875 0.375 6.535156 0.28125 5.671875 0.09375 C 4.804688 -0.0820312 4.082031 -0.304688 3.5 -0.578125 C 2.914062 -0.859375 2.390625 -1.128906 1.921875 -1.390625 C 1.453125 -1.660156 1.113281 -1.890625 0.90625 -2.078125 L 0.578125 -2.34375 L 2.921875 -6.296875 C 3.117188 -6.128906 3.394531 -5.914062 3.75 -5.65625 C 4.101562 -5.40625 4.722656 -5.0625 5.609375 -4.625 C 6.503906 -4.1875 7.289062 -3.96875 7.96875 -3.96875 C 9.957031 -3.96875 10.953125 -4.644531 10.953125 -6 C 10.953125 -6.28125 10.878906 -6.539062 10.734375 -6.78125 C 10.597656 -7.03125 10.347656 -7.273438 9.984375 -7.515625 C 9.628906 -7.753906 9.3125 -7.941406 9.03125 -8.078125 C 8.757812 -8.222656 8.3125 -8.441406 7.6875 -8.734375 C 7.0625 -9.023438 6.597656 -9.25 6.296875 -9.40625 C 5.046875 -10.019531 4.078125 -10.785156 3.390625 -11.703125 C 2.710938 -12.628906 2.375 -13.628906 2.375 -14.703125 C 2.375 -16.546875 3.054688 -18.054688 4.421875 -19.234375 C 5.785156 -20.410156 7.34375 -21 9.09375 -21 Z M 9.09375 -21 "/></g></g></g><g fill="#000000" fill-opacity="1"><g transform="translate(226.33096, 300.56213)"><g><path d="M 0.203125 -16.5 L 0.203125 -20.625 L 14.703125 -20.625 L 14.703125 -16.5 L 9.796875 -16.5 L 9.796875 0 L 5.09375 0 L 5.09375 -16.5 Z M 0.203125 -16.5 "/></g></g></g><g fill="#000000" fill-opacity="1"><g transform="translate(244.374887, 300.56213)"><g><path d="M 17.34375 -20.625 L 17.34375 -7.328125 C 17.34375 -4.796875 16.660156 -2.878906 15.296875 -1.578125 C 13.929688 -0.273438 11.929688 0.375 9.296875 0.375 C 6.660156 0.375 4.660156 -0.273438 3.296875 -1.578125 C 1.929688 -2.878906 1.25 -4.796875 1.25 -7.328125 L 1.25 -20.625 L 5.953125 -20.625 L 5.953125 -8.703125 C 5.953125 -7.035156 6.210938 -5.875 6.734375 -5.21875 C 7.265625 -4.570312 8.117188 -4.25 9.296875 -4.25 C 10.484375 -4.25 11.335938 -4.570312 11.859375 -5.21875 C 12.390625 -5.875 12.65625 -7.035156 12.65625 -8.703125 L 12.65625 -20.625 Z M 17.34375 -20.625 "/></g></g></g><g fill="#000000" fill-opacity="1"><g transform="translate(266.117358, 300.56213)"><g><path d="M 1.5 -20.625 L 7.46875 -20.625 C 10.34375 -20.625 12.796875 -19.644531 14.828125 -17.6875 C 16.859375 -15.726562 17.875 -13.273438 17.875 -10.328125 C 17.875 -7.359375 16.859375 -4.894531 14.828125 -2.9375 C 12.804688 -0.976562 10.351562 0 7.46875 0 L 1.5 0 Z M 6.203125 -4.203125 L 6.921875 -4.203125 C 8.640625 -4.203125 10.046875 -4.78125 11.140625 -5.9375 C 12.234375 -7.09375 12.785156 -8.546875 12.796875 -10.296875 C 12.796875 -12.046875 12.25 -13.503906 11.15625 -14.671875 C 10.070312 -15.835938 8.660156 -16.421875 6.921875 -16.421875 L 6.203125 -16.421875 Z M 6.203125 -4.203125 "/></g></g></g><g fill="#000000" fill-opacity="1"><g transform="translate(287.709883, 300.56213)"><g><path d="M 6.203125 -20.625 L 6.203125 0 L 1.5 0 L 1.5 -20.625 Z M 6.203125 -20.625 "/></g></g></g><g fill="#000000" fill-opacity="1"><g transform="translate(298.55665, 300.56213)"><g><path d="M 0.578125 -10.328125 C 0.578125 -13.304688 1.59375 -15.828125 3.625 -17.890625 C 5.65625 -19.960938 8.101562 -21 10.96875 -21 C 13.851562 -21 16.300781 -19.96875 18.3125 -17.90625 C 20.332031 -15.851562 21.34375 -13.328125 21.34375 -10.328125 C 21.34375 -7.304688 20.351562 -4.765625 18.375 -2.703125 C 16.394531 -0.648438 13.925781 0.375 10.96875 0.375 C 7.957031 0.375 5.472656 -0.644531 3.515625 -2.6875 C 1.554688 -4.726562 0.578125 -7.273438 0.578125 -10.328125 Z M 5.65625 -10.328125 C 5.65625 -9.242188 5.820312 -8.253906 6.15625 -7.359375 C 6.488281 -6.472656 7.070312 -5.71875 7.90625 -5.09375 C 8.738281 -4.476562 9.757812 -4.171875 10.96875 -4.171875 C 12.71875 -4.171875 14.039062 -4.769531 14.9375 -5.96875 C 15.832031 -7.175781 16.28125 -8.628906 16.28125 -10.328125 C 16.28125 -12.003906 15.820312 -13.445312 14.90625 -14.65625 C 14 -15.863281 12.6875 -16.46875 10.96875 -16.46875 C 9.269531 -16.46875 7.957031 -15.863281 7.03125 -14.65625 C 6.113281 -13.445312 5.65625 -12.003906 5.65625 -10.328125 Z M 5.65625 -10.328125 "/></g></g></g></svg>