<svg xmlns="http://www.w3.org/2000/svg" viewBox="0 0 64 64" id="fashion"><path d="M32.63 16.87c-8.45 0-15.33 6.79-15.33 15.13s6.88 15.13 15.33 15.13S47.96 40.34 47.96 32s-6.88-15.13-15.33-15.13zm0 28.32c-7.39 0-13.39-5.92-13.39-13.19s6.01-13.19 13.39-13.19c7.39 0 13.39 5.92 13.39 13.19s-6.01 13.19-13.39 13.19z"></path><path d="M42.66 15.62 41.8 2.39C41.72 1.05 40.61 0 39.29 0H25.97c-1.32 0-2.43 1.05-2.52 2.39l-.86 13.24c-1.5.9-2.86 1.98-4.05 3.23l-2.76-1.65a.97.97 0 0 0-1.32.32L12.28 21c-.25.4-.18.93.18 1.24l2.38 2.1a18.787 18.787 0 0 0-1.64 7.68c0 2.58.53 5.05 1.47 7.3l-2.4 2.08c-.4.35-.45.95-.11 1.35l2.63 3.14c.19.23.46.35.74.35.17 0 .34-.04.49-.13l2.18-1.28c1.27 1.39 2.74 2.6 4.37 3.57l.86 13.23c.09 1.34 1.19 2.39 2.52 2.39h13.32c1.32 0 2.43-1.05 2.51-2.39l.86-13.23c5.62-3.36 9.39-9.44 9.39-16.38s-3.75-13.03-9.37-16.4zM25.39 2.51c.02-.33.27-.58.58-.58h13.32c.31 0 .56.25.58.57l.78 12.05c-2.45-1.1-5.16-1.73-8.02-1.73-2.86 0-5.58.63-8.03 1.73l.79-12.04zM14.36 21.32l1.23-1.97 1.65.99c-.55.7-1.05 1.43-1.49 2.2l-1.39-1.22zM15.76 44l-1.49-1.78 1.27-1.11c.42.76.91 1.48 1.42 2.18l-1.2.71zm24.11 17.49c-.02.33-.27.58-.58.58H25.97c-.31 0-.56-.25-.58-.57l-.79-12.07a19.54 19.54 0 0 0 8.03 1.73c2.86 0 5.57-.63 8.02-1.73l-.78 12.06zm-7.24-12.26c-9.64 0-17.49-7.73-17.49-17.23s7.84-17.23 17.49-17.23c9.64 0 17.49 7.73 17.49 17.23s-7.85 17.23-17.49 17.23z"></path><path d="M27.58 5.45h10.09c.54 0 .97-.43.97-.97s-.43-.97-.97-.97H27.58a.97.97 0 0 0 0 1.94zm11.06 3.79c0-.54-.43-.97-.97-.97H27.58c-.54 0-.97.43-.97.97s.43.97.97.97h10.09c.54 0 .97-.43.97-.97zM26.61 54.21c0 .54.43.97.97.97h10.09c.54 0 .97-.43.97-.97s-.43-.97-.97-.97H27.58c-.53 0-.97.44-.97.97zm11.06 3.8H27.58c-.54 0-.97.43-.97.97s.43.97.97.97h10.09c.54 0 .97-.43.97-.97s-.43-.97-.97-.97zm.45-25.91h-4.79v-8.97c0-.54-.43-.97-.97-.97s-.97.43-.97.97v9.94c0 .54.43.97.97.97h5.76c.54 0 .97-.43.97-.97s-.43-.97-.97-.97z"></path></svg>