<svg xmlns="http://www.w3.org/2000/svg" width="24" height="24" fill="none" viewBox="0 0 24 24" id="transaction"><path fill="#000" fill-rule="evenodd" d="M1.41435 3.46849C1.19522 3.19458 1.19522 2.80537 1.41435 2.53145L2.61435 1.03145C2.87311.708005 3.34507.655564 3.66852.914321 3.99197 1.17308 4.04441 1.64505 3.78565 1.96849L3.56047 2.24997 6 2.24997C6.41421 2.24997 6.75 2.58576 6.75 2.99997 6.75 3.41419 6.41421 3.74997 6 3.74997L3.56047 3.74997 3.78565 4.03145C4.04441 4.3549 3.99197 4.82687 3.66852 5.08562 3.34508 5.34438 2.87311 5.29194 2.61435 4.96849L1.41435 3.46849zM22.5857 21.4685C22.8048 21.1946 22.8048 20.8054 22.5857 20.5315L21.3857 19.0315C21.1269 18.708 20.6549 18.6556 20.3315 18.9143 20.008 19.1731 19.9556 19.645 20.2143 19.9685L20.4395 20.25 18 20.25C17.5858 20.25 17.25 20.5858 17.25 21 17.25 21.4142 17.5858 21.75 18 21.75L20.4395 21.75 20.2143 22.0315C19.9556 22.3549 20.008 22.8269 20.3315 23.0856 20.6549 23.3444 21.1269 23.2919 21.3857 22.9685L22.5857 21.4685zM12 4.75C7.99594 4.75 4.75 7.99594 4.75 12 4.75 16.0041 7.99594 19.25 12 19.25 16.0041 19.25 19.25 16.0041 19.25 12 19.25 7.99594 16.0041 4.75 12 4.75zM3.25 12C3.25 7.16751 7.16751 3.25 12 3.25 16.8325 3.25 20.75 7.16751 20.75 12 20.75 16.8325 16.8325 20.75 12 20.75 7.16751 20.75 3.25 16.8325 3.25 12z" clip-rule="evenodd"></path><path fill="#000" fill-rule="evenodd" d="M12 5.87012C12.4142 5.87012 12.75 6.2059 12.75 6.62012V7.37012H14C14.4142 7.37012 14.75 7.7059 14.75 8.12012C14.75 8.53433 14.4142 8.87012 14 8.87012H12C11.3096 8.87012 10.75 9.42976 10.75 10.1201V11.3701H14C14.4142 11.3701 14.75 11.7059 14.75 12.1201V14.1201C14.75 15.3789 13.9043 16.4401 12.75 16.7666V17.6201C12.75 18.0343 12.4142 18.3701 12 18.3701C11.5858 18.3701 11.25 18.0343 11.25 17.6201V16.8701H10C9.58579 16.8701 9.25 16.5343 9.25 16.1201C9.25 15.7059 9.58579 15.3701 10 15.3701H12C12.6904 15.3701 13.25 14.8105 13.25 14.1201V12.8701H10C9.58579 12.8701 9.25 12.5343 9.25 12.1201V10.1201C9.25 8.86134 10.0957 7.8001 11.25 7.47363V6.62012C11.25 6.2059 11.5858 5.87012 12 5.87012Z" clip-rule="evenodd"></path></svg>